<svg xmlns="http://www.w3.org/2000/svg" viewBox="0 0 24 24" fill="#2b6e44"><path d="M12 8.5A3.5 3.5 0 1012 15.5 3.5 3.5 0 0012 8.5zm8.94 3a7.97 7.97 0 00-.18-1.1l2-1.6a1 1 0 00.18-1.38l-2-3.46a1 1 0 00-1.25-.4l-2.35.95a8.1 8.1 0 00-1.9-1.1L14.5 1.6A1 1 0 0013.6.9h-3.2a1 1 0 00-.9.7L8.42 4.1a8.1 8.1 0 00-1.9 1.1L3.99 4.27a1 1 0 00-1.25.4L.74 8.13A1 1 0 00.92 9.5l2 1.6c0 .36-.02.72-.02 1.08s0 .72.02 1.08l-2 1.6a1 1 0 00-.18 1.38l2 3.46a1 1 0 001.25.4l2.35-.95c.58.4 1.2.74 1.9 1.1l.84 2.5a1 1 0 00.9.7h3.2a1 1 0 00.9-.7l.84-2.5c.68-.36 1.32-.7 1.9-1.1l2.35.95a1 1 0 001.25-.4l2-3.46a1 1 0 00-.18-1.38l-2-1.6c.02-.36.02-.72.02-1.08s0-.72-.02-1.08l2-1.6a1 1 0 00.18-1.38l-2-3.46z"/></svg>